<svg preserveAspectRatio="none" width="218" height="474" viewBox="0 0 218 474" fill="none" xmlns="http://www.w3.org/2000/svg">
<path d="M55.1703 0.126683C52.2241 0.352579 49.637 0.907483 47.3867 1.79658C42.5043 3.72533 38.5134 7.57272 35.9664 12.8058C33.8658 17.1218 32.792 21.845 31.9787 30.3459C31.6829 33.4385 0.456607 411.031 0.20985 414.5C-0.0697285 418.43 -0.0699942 423.783 0.209319 426.194C1.15688 434.373 4.67992 440.7 10.4106 444.518C13.7105 446.714 17.3453 448.014 23.7986 449.304C26.4595 449.837 146.761 471.648 150.3 472.239C157.223 473.398 161.378 473.543 165.03 472.751C170.904 471.478 175.482 467.829 178.335 462.142C180.401 458.026 181.487 453.348 182.317 444.996C182.566 442.505 216.373 52.9964 217.268 42.305C218.136 31.9627 218.1 27.2713 217.121 22.7147C215.639 15.8219 211.711 10.4341 206.12 7.6276C203.842 6.48404 201.073 5.6647 197.861 5.18355C194.396 4.66465 192.071 4.53589 176.8 4.01753C164.98 3.61623 165.617 3.59577 164.692 4.40846C164.268 4.78066 163.86 5.52013 163.678 6.24618C163.63 6.43873 163.468 7.54495 163.319 8.70445C162.84 12.4455 162.236 14.3525 160.9 16.3521C159.526 18.4059 157.894 19.8302 155.817 20.7897C154.544 21.378 153.464 21.6307 151.828 21.7225C150.479 21.7981 99.703 19.7863 96.4173 19.527C94.4068 19.3683 93.4511 19.1453 92.1651 18.5345C89.636 17.3334 87.8241 15.1402 86.8752 12.1314C86.3625 10.5059 86.2467 9.25697 86.2841 5.76317C86.3183 2.58841 86.3169 2.57154 85.9913 2.00281C85.4366 1.03399 85.0562 0.888083 82.7477 0.758658C78.9227 0.544058 61.195 -0.018686 58.8788 0.000477563C57.5998 0.0118763 55.931 0.068483 55.1703 0.126683Z" fill="white"/>
</svg>
